<?xml version="1.0" standalone="no"?>
<!DOCTYPE svg PUBLIC "-//W3C//DTD SVG 20010904//EN"
 "http://www.w3.org/TR/2001/REC-SVG-20010904/DTD/svg10.dtd">
<svg version="1.0" xmlns="http://www.w3.org/2000/svg"
 width="137.000000pt" height="128.000000pt" viewBox="0 0 137.000000 128.000000"
 preserveAspectRatio="xMidYMid meet">

<g transform="translate(0.000000,128.000000) scale(0.100000,-0.100000)"
fill="#000000" stroke="none">
<path d="M624 1228 c-43 -40 -104 -146 -120 -211 -5 -21 -11 -26 -23 -21 -26
11 -108 17 -135 10 -15 -3 -26 -13 -26 -21 0 -10 -10 -15 -26 -15 -25 0 -26
-2 -21 -35 5 -33 -5 -47 -18 -25 -14 22 -33 7 -59 -46 -28 -58 -28 -84 0 -84
22 0 138 -56 153 -74 10 -11 7 -30 -10 -86 -21 -70 -23 -165 -5 -211 5 -12 -5
-21 -43 -38 -38 -16 -49 -25 -44 -37 5 -14 3 -15 -17 -4 -12 6 -48 13 -80 13
-68 2 -90 18 -90 63 0 39 21 54 73 54 45 0 64 22 49 55 -10 21 -18 25 -56 25
-130 0 -167 -177 -58 -277 15 -13 56 -38 92 -56 53 -26 80 -32 152 -35 49 -3
88 -7 88 -9 0 -3 -18 -38 -40 -78 -22 -39 -37 -74 -34 -77 3 -3 44 7 92 21 90
28 166 67 196 100 13 14 29 18 70 16 43 -2 61 -9 100 -39 26 -20 58 -36 71
-36 12 0 26 -7 29 -16 4 -10 12 -14 23 -10 9 4 19 3 22 -1 8 -11 109 -42 115
-36 6 6 -52 116 -96 181 l-29 44 37 40 c20 22 45 60 55 83 18 40 22 43 79 55
101 21 191 -9 213 -72 9 -26 -12 -76 -35 -83 -27 -9 -73 12 -88 41 -26 47 -91
16 -75 -36 9 -28 67 -60 111 -60 54 0 119 34 134 71 17 41 16 99 -3 136 -34
66 -192 172 -281 188 -27 5 -34 14 -49 53 -16 44 -16 48 1 61 27 21 135 71
154 71 31 0 30 21 -1 85 -36 73 -97 132 -147 141 -37 7 -110 1 -135 -10 -13
-6 -20 4 -34 46 -9 28 -27 73 -40 98 -25 50 -105 130 -130 130 -8 0 -36 -19
-61 -42z m129 -196 c33 -31 61 -82 72 -129 8 -39 13 -40 57 -13 37 23 91 26
127 7 32 -16 70 -79 52 -85 -6 -2 -32 -19 -56 -37 l-43 -33 -28 30 c-42 43
-100 75 -174 94 -55 14 -75 15 -129 5 -77 -15 -136 -41 -189 -86 l-40 -35 -50
33 c-28 17 -51 38 -51 46 -1 7 14 28 33 47 29 29 41 34 82 34 32 0 59 -7 79
-20 40 -26 42 -26 50 13 11 52 56 125 89 147 39 26 80 20 119 -18z m1 -227
c196 -51 286 -258 194 -443 -66 -132 -245 -193 -386 -132 -72 31 -143 110
-167 185 -35 112 -1 241 83 317 49 44 73 57 132 74 61 17 76 16 144 -1z m341
-285 c3 -6 -5 -10 -19 -10 -14 0 -28 5 -31 10 -3 6 5 10 19 10 14 0 28 -4 31
-10z m110 -55 c26 -10 17 -12 -65 -9 -52 2 -96 8 -98 13 -7 21 108 18 163 -4z
m-815 -176 c0 -11 -84 -29 -142 -30 l-53 -1 39 -10 c27 -8 59 -7 109 1 62 10
72 10 89 -5 32 -29 5 -39 -105 -39 -106 0 -121 4 -187 53 l-34 26 24 7 c14 4
48 8 75 9 28 1 75 7 105 14 47 10 57 10 68 -3 6 -8 12 -18 12 -22z m523 -126
c14 -21 28 -49 32 -62 6 -21 -1 -18 -50 24 -52 45 -55 50 -39 62 25 19 28 17
57 -24z m-389 19 c5 -8 -102 -107 -109 -100 -2 2 6 21 18 43 26 46 77 79 91
57z m66 -29 c12 -11 -125 -93 -158 -93 -20 0 -5 17 56 66 53 41 79 48 102 27z
m300 -35 c45 -37 60 -54 48 -56 -27 -5 -158 68 -158 88 0 7 11 12 40 19 3 0
34 -23 70 -51z"/>
<path d="M580 754 c-45 -19 -106 -78 -133 -129 -30 -56 -30 -173 0 -231 39
-74 131 -144 188 -143 11 0 0 7 -24 15 -25 9 -56 23 -70 33 l-25 16 49 5 c35
4 51 10 53 21 2 10 -5 19 -18 22 -18 5 -20 13 -20 103 0 94 1 97 18 81 9 -10
17 -32 17 -50 l0 -32 69 -3 c65 -3 68 -2 63 18 -5 21 21 80 36 80 4 0 7 -43 7
-96 0 -87 -2 -96 -20 -101 -11 -3 -20 -14 -20 -24 0 -16 8 -19 53 -20 52 0 52
0 28 -17 -13 -9 -44 -25 -70 -34 -25 -9 -38 -17 -28 -18 33 0 106 42 146 85
57 62 83 160 62 235 -4 15 -7 -6 -6 -50 0 -92 -27 -155 -66 -155 l-24 0 -3
143 c-1 84 1 142 7 142 5 0 16 3 25 6 10 4 22 -5 36 -28 11 -18 20 -28 20 -21
0 20 -64 96 -106 126 -25 18 -57 30 -85 32 l-44 4 43 -9 c46 -10 112 -46 112
-61 0 -5 -22 -9 -50 -9 -38 0 -50 -4 -50 -15 0 -9 9 -19 20 -23 20 -7 18 -12
-30 -80 -28 -40 -52 -72 -54 -72 -5 0 -106 136 -106 143 0 2 9 7 20 10 11 3
20 12 20 21 0 13 -11 16 -50 16 -27 0 -50 4 -50 9 0 16 66 51 112 60 35 7 37
9 13 10 -16 0 -46 -7 -65 -15z m-59 -104 c6 0 8 -58 7 -142 l-3 -143 -25 -3
c-21 -2 -29 4 -43 33 -36 74 -34 172 4 234 13 22 25 31 35 27 9 -3 20 -6 25
-6z"/>
<path d="M673 243 c9 -2 23 -2 30 0 6 3 -1 5 -18 5 -16 0 -22 -2 -12 -5z"/>
</g>
</svg>
