<?xml version="1.0" encoding="UTF-8"?>
<!DOCTYPE svg PUBLIC "-//W3C//DTD SVG 1.1//EN" "http://www.w3.org/Graphics/SVG/1.1/DTD/svg11.dtd">
<!-- Creator: CorelDRAW 2017 -->
<svg xmlns="http://www.w3.org/2000/svg" xml:space="preserve" width="210mm" height="297mm" version="1.1" style="shape-rendering:geometricPrecision; text-rendering:geometricPrecision; image-rendering:optimizeQuality; fill-rule:evenodd; clip-rule:evenodd"
viewBox="0 0 21000 29700"
 xmlns:xlink="http://www.w3.org/1999/xlink">
 <defs>
  <style type="text/css">
   <![CDATA[
    .fil0 {fill:#A62233}
    .fil2 {fill:#EFEAEB}
    .fil1 {fill:#FEFEFE}
   ]]>
  </style>
 </defs>
 <g id="Capa_x0020_1">
  <metadata id="CorelCorpID_0Corel-Layer"/>
  <g id="_2309426280112">
   <path class="fil0" d="M8083 15546l0 272c117,182 138,358 500,533 266,129 570,176 910,154 -75,155 -270,423 -264,591l79 0c155,-106 438,-137 625,-232 252,-127 317,-291 622,-276 200,10 156,36 293,144l439 210c80,26 27,2 122,41 133,55 231,100 374,81 -84,-260 -330,-593 -434,-793 525,-587 229,-586 669,-635 406,-45 835,147 586,539 -457,85 -239,-269 -568,-206 -179,233 87,421 318,427 365,10 438,-149 564,-373l0 -219c-135,-227 -116,-323 -485,-553 -757,-472 -582,-21 -808,-590 154,-166 433,-293 709,-335 -132,-507 -507,-998 -1144,-734 -64,-86 -165,-432 -252,-583 -105,-183 -228,-296 -418,-405 -206,48 -348,237 -451,408 -100,165 -163,458 -254,583 -163,-53 -422,-135 -588,-9 -6,4 -12,13 -18,17 -5,4 -12,13 -17,17l-112 67 -18 219 -203 -57 -194 481c324,46 473,193 696,295 -31,173 -118,313 -143,499 -35,258 36,393 29,598 -77,37 -139,56 -194,80l-168 141c-127,-165 -694,113 -568,-412 260,-98 584,35 365,-332 -436,-101 -451,104 -597,348z"/>
   <path class="fil1" d="M10256 14253c-1376,346 -883,2384 467,2091 510,-111 942,-632 806,-1285 -103,-493 -653,-962 -1273,-806z"/>
   <path class="fil0" d="M9956 14555c-138,63 -212,133 -253,286 -192,176 -180,627 1,951 83,148 110,124 191,232 87,-9 25,-9 43,-18 173,-97 -133,26 51,-32 132,0 176,24 280,-42 -13,-463 -132,434 -121,-797 210,227 55,183 123,337l466 16c-1,-118 -36,-180 44,-285 79,-104 -14,12 63,-60l4 613c-139,117 -118,43 -123,176 108,68 190,42 334,42 -153,228 -504,228 -832,196 186,135 492,66 681,-24 179,-85 382,-254 422,-465 129,-143 114,-467 70,-632 -208,-787 -1111,-796 -1395,-548 -47,41 -25,21 -48,55z"/>
   <path class="fil1" d="M9994 14050c-63,-24 -693,-433 -836,153 50,52 324,228 372,251 277,-424 996,-597 1521,-329 222,113 243,164 418,323l299 -196c40,-28 38,-24 65,-49 -110,-497 -575,-271 -788,-156 -107,-136 -142,-640 -499,-699 -339,-56 -516,383 -554,702z"/>
   <path class="fil1" d="M9956 14555c-46,163 134,38 304,106 28,223 25,63 -112,176 52,107 262,414 386,475 71,-138 194,-305 295,-440l-27 -41c-71,-107 -86,22 -67,-171l330 -28c-5,-5 -15,-28 -19,-21l-81 -82c-28,-21 -83,-47 -115,-60 -97,-41 -184,-61 -296,-67 -348,-18 -371,98 -598,152z"/>
   <path class="fil1" d="M11329 15681c32,-421 182,-283 -103,-916l-174 50 -4 981c200,32 155,35 264,-94 4,-4 10,-14 17,-20z"/>
   <path class="fil1" d="M9703 14841c-72,478 -225,286 59,994l183 -45 0 -978c-103,-17 -121,-37 -180,-14 -6,2 -16,9 -21,12l-41 31z"/>
   <path class="fil1" d="M8483 16074c338,363 679,348 1189,250l-137 -146c-347,62 -555,101 -869,-19 248,-5 545,68 782,-86 -62,-138 -13,-111 -157,-103 -54,3 -193,43 -262,54 -188,30 -359,31 -546,50z"/>
   <path class="fil1" d="M10152 16567c-108,-64 -143,-65 -233,-1 -109,78 -142,109 -246,180 122,-199 168,-92 257,-296 -331,9 -362,325 -349,355 87,188 530,-183 571,-238z"/>
   <path class="fil1" d="M10835 16557c145,141 299,264 556,310 -81,-185 -5,-74 -215,-218 -214,-147 -157,-168 -341,-92z"/>
   <path class="fil1" d="M11063 16469c132,137 226,254 372,343 -40,-159 -136,-324 -247,-404l-125 61z"/>
   <path class="fil2" d="M11764 15438l60 32c123,23 166,-6 283,-1 102,4 206,28 309,39 -82,-68 -150,-93 -273,-110 -161,-23 -261,-35 -378,40z"/>
  </g>
 </g>
</svg>
